<svg width="2560" height="296" viewBox="0 0 2560 296" fill="none" xmlns="http://www.w3.org/2000/svg">
<g clip-path="url(#clip0_401_609)">
<rect width="2560" height="296" fill="#0B1B2B"/>
<g filter="url(#filter0_f_401_609)">
<circle cx="-12" cy="22" r="118" fill="#14589C"/>
</g>
<g filter="url(#filter1_f_401_609)">
<circle cx="2475.07" cy="42.9365" r="77.6256" transform="rotate(15 2475.07 42.9365)" fill="#14589C"/>
</g>
<rect x="212" y="125" width="69" height="3" rx="1.5" fill="#1562AF" fill-opacity="0.14"/>
<rect x="99" y="125" width="106" height="3" rx="1.5" fill="#1562AF" fill-opacity="0.14"/>
<rect y="125" width="92" height="3" rx="1.5" fill="#1562AF" fill-opacity="0.14"/>
<rect x="287" y="125" width="77" height="3" rx="1.5" fill="#1562AF" fill-opacity="0.34"/>
<rect x="328" y="136" width="36" height="3" rx="1.5" fill="#1562AF" fill-opacity="0.14"/>
<rect x="184" y="136" width="137" height="3" rx="1.5" fill="#1562AF" fill-opacity="0.14"/>
<rect x="72" y="136" width="105" height="3" rx="1.5" fill="#1562AF" fill-opacity="0.34"/>
<rect y="136" width="65" height="3" rx="1.5" fill="#1562AF" fill-opacity="0.14"/>
<rect y="70" width="144" height="3" rx="1.5" fill="#1562AF" fill-opacity="0.14"/>
<rect x="151" y="70" width="136" height="3" rx="1.5" fill="#1562AF" fill-opacity="0.34"/>
<rect width="46" height="3" rx="1.5" transform="matrix(-1 0 0 1 340 70)" fill="#1562AF" fill-opacity="0.14"/>
<rect x="122" y="81" width="111" height="3" rx="1.5" fill="#1562AF" fill-opacity="0.14"/>
<rect x="122" y="222" width="111" height="3" rx="1.5" fill="#1562AF" fill-opacity="0.14"/>
<rect y="81" width="115" height="3" rx="1.5" fill="#1562AF" fill-opacity="0.34"/>
<rect y="222" width="115" height="3" rx="1.5" fill="#1562AF" fill-opacity="0.34"/>
<rect x="275" y="81" width="28" height="3" rx="1.5" fill="#1562AF" fill-opacity="0.34"/>
<rect x="240" y="81" width="28" height="3" rx="1.5" fill="#1562AF" fill-opacity="0.14"/>
<rect x="240" y="222" width="37" height="3" rx="1.5" fill="#1562AF" fill-opacity="0.14"/>
<rect x="310" y="81" width="83" height="3" rx="1.5" fill="#1562AF" fill-opacity="0.14"/>
<rect x="284" y="92" width="89" height="3" rx="1.5" fill="#1562AF" fill-opacity="0.14"/>
<rect x="284" y="233" width="19" height="3" rx="1.5" fill="#1562AF" fill-opacity="0.14"/>
<rect x="134" y="92" width="143" height="3" rx="1.5" fill="#1562AF" fill-opacity="0.34"/>
<rect x="134" y="233" width="143" height="3" rx="1.5" fill="#1562AF" fill-opacity="0.34"/>
<rect x="95" y="92" width="32" height="3" rx="1.5" fill="#1562AF" fill-opacity="0.14"/>
<rect x="95" y="233" width="32" height="3" rx="1.5" fill="#1562AF" fill-opacity="0.14"/>
<rect y="92" width="88" height="3" rx="1.5" fill="#1562AF" fill-opacity="0.14"/>
<rect y="233" width="88" height="3" rx="1.5" fill="#1562AF" fill-opacity="0.14"/>
<rect x="349" y="103" width="60" height="3" rx="1.5" fill="#1562AF" fill-opacity="0.34"/>
<rect x="201" y="103" width="142" height="3" rx="1.5" fill="#1562AF" fill-opacity="0.14"/>
<rect x="201" y="244" width="51" height="3" rx="1.5" fill="#1562AF" fill-opacity="0.14"/>
<rect x="259" y="244" width="62" height="3" rx="1.5" fill="#1562AF" fill-opacity="0.34"/>
<rect x="163" y="103" width="31" height="3" rx="1.5" fill="#1562AF" fill-opacity="0.14"/>
<rect x="106" y="103" width="51" height="3" rx="1.5" fill="#1562AF" fill-opacity="0.14"/>
<rect x="106" y="244" width="88" height="3" rx="1.5" fill="#1562AF" fill-opacity="0.14"/>
<rect x="32" y="103" width="67" height="3" rx="1.5" fill="#1562AF" fill-opacity="0.34"/>
<rect y="244" width="99" height="3" rx="1.5" fill="#1562AF" fill-opacity="0.34"/>
<rect y="103" width="25" height="3" rx="1.5" fill="#1562AF" fill-opacity="0.14"/>
<rect y="114" width="72" height="3" rx="1.5" fill="#1562AF" fill-opacity="0.34"/>
<rect y="255" width="72" height="3" rx="1.5" fill="#1562AF" fill-opacity="0.14"/>
<rect x="79" y="114" width="97" height="3" rx="1.5" fill="#1562AF" fill-opacity="0.14"/>
<rect x="79" y="255" width="55" height="3" rx="1.5" fill="#1562AF" fill-opacity="0.34"/>
<rect width="61" height="3" rx="1.5" transform="matrix(-1 0 0 1 2370 197)" fill="#1562AF" fill-opacity="0.14"/>
<rect width="94" height="3" rx="1.5" transform="matrix(-1 0 0 1 2470 197)" fill="#1562AF" fill-opacity="0.34"/>
<rect width="82" height="3" rx="1.5" transform="matrix(-1 0 0 1 2558 197)" fill="#1562AF" fill-opacity="0.14"/>
<rect width="68" height="3" rx="1.5" transform="matrix(-1 0 0 1 2303 197)" fill="#1562AF" fill-opacity="0.34"/>
<rect width="42" height="3" rx="1.5" transform="matrix(-1 0 0 1 2229 208)" fill="#1562AF" fill-opacity="0.34"/>
<rect width="32" height="3" rx="1.5" transform="matrix(-1 0 0 1 2267 208)" fill="#1562AF" fill-opacity="0.14"/>
<rect width="122" height="3" rx="1.5" transform="matrix(-1 0 0 1 2395 208)" fill="#1562AF" fill-opacity="0.14"/>
<rect width="93" height="3" rx="1.5" transform="matrix(-1 0 0 1 2494 208)" fill="#1562AF" fill-opacity="0.14"/>
<rect width="58" height="3" rx="1.5" transform="matrix(-1 0 0 1 2558 208)" fill="#1562AF" fill-opacity="0.34"/>
<rect width="118" height="3" rx="1.5" transform="matrix(-1 0 0 1 2558 30)" fill="#1562AF" fill-opacity="0.14"/>
<rect width="128" height="3" rx="1.5" transform="matrix(-1 0 0 1 2558 219)" fill="#1562AF" fill-opacity="0.14"/>
<rect width="112" height="3" rx="1.5" transform="matrix(-1 0 0 1 2434 30)" fill="#1562AF" fill-opacity="0.34"/>
<rect width="121" height="3" rx="1.5" transform="matrix(-1 0 0 1 2377 219)" fill="#1562AF" fill-opacity="0.14"/>
<rect x="2278" y="30" width="38" height="3" rx="1.5" fill="#1562AF" fill-opacity="0.14"/>
<rect x="2383" y="219" width="41" height="3" rx="1.5" fill="#1562AF" fill-opacity="0.34"/>
<rect width="92" height="3" rx="1.5" transform="matrix(-1 0 0 1 2458 41)" fill="#1562AF" fill-opacity="0.14"/>
<rect width="99" height="3" rx="1.5" transform="matrix(-1 0 0 1 2450 230)" fill="#1562AF" fill-opacity="0.14"/>
<rect width="94" height="3" rx="1.5" transform="matrix(-1 0 0 1 2558 41)" fill="#1562AF" fill-opacity="0.34"/>
<rect width="102" height="3" rx="1.5" transform="matrix(-1 0 0 1 2558 230)" fill="#1562AF" fill-opacity="0.34"/>
<rect width="23" height="3" rx="1.5" transform="matrix(-1 0 0 1 2332 41)" fill="#1562AF" fill-opacity="0.34"/>
<rect width="23" height="3" rx="1.5" transform="matrix(-1 0 0 1 2361 41)" fill="#1562AF" fill-opacity="0.14"/>
<rect width="62" height="3" rx="1.5" transform="matrix(-1 0 0 1 2345 230)" fill="#1562AF" fill-opacity="0.34"/>
<rect width="68" height="3" rx="1.5" transform="matrix(-1 0 0 1 2303 41)" fill="#1562AF" fill-opacity="0.14"/>
<rect width="79" height="3" rx="1.5" transform="matrix(-1 0 0 1 2306 84)" fill="#1562AF" fill-opacity="0.14"/>
<rect width="79" height="3" rx="1.5" transform="matrix(-1 0 0 1 2306 241)" fill="#1562AF" fill-opacity="0.34"/>
<rect width="127" height="3" rx="1.5" transform="matrix(-1 0 0 1 2439 84)" fill="#1562AF" fill-opacity="0.14"/>
<rect width="127" height="3" rx="1.5" transform="matrix(-1 0 0 1 2439 241)" fill="#1562AF" fill-opacity="0.14"/>
<rect width="29" height="3" rx="1.5" transform="matrix(-1 0 0 1 2474 84)" fill="#1562AF" fill-opacity="0.34"/>
<rect width="29" height="3" rx="1.5" transform="matrix(-1 0 0 1 2474 241)" fill="#1562AF" fill-opacity="0.34"/>
<rect width="78" height="3" rx="1.5" transform="matrix(-1 0 0 1 2558 84)" fill="#1562AF" fill-opacity="0.14"/>
<rect width="78" height="3" rx="1.5" transform="matrix(-1 0 0 1 2558 241)" fill="#1562AF" fill-opacity="0.14"/>
<rect width="53" height="3" rx="1.5" transform="matrix(-1 0 0 1 2248 95)" fill="#1562AF" fill-opacity="0.34"/>
<rect width="53" height="3" rx="1.5" transform="matrix(-1 0 0 1 2248 252)" fill="#1562AF" fill-opacity="0.14"/>
<rect width="126" height="3" rx="1.5" transform="matrix(-1 0 0 1 2380 95)" fill="#1562AF" fill-opacity="0.14"/>
<rect width="126" height="3" rx="1.5" transform="matrix(-1 0 0 1 2380 252)" fill="#1562AF" fill-opacity="0.14"/>
<rect width="27" height="3" rx="1.5" transform="matrix(-1 0 0 1 2413 95)" fill="#1562AF" fill-opacity="0.34"/>
<rect width="45" height="3" rx="1.5" transform="matrix(-1 0 0 1 2464 95)" fill="#1562AF" fill-opacity="0.14"/>
<rect width="78" height="3" rx="1.5" transform="matrix(-1 0 0 1 2464 252)" fill="#1562AF" fill-opacity="0.34"/>
<rect width="60" height="3" rx="1.5" transform="matrix(-1 0 0 1 2530 95)" fill="#1562AF" fill-opacity="0.14"/>
<rect width="88" height="3" rx="1.5" transform="matrix(-1 0 0 1 2558 252)" fill="#1562AF" fill-opacity="0.14"/>
<rect width="22" height="3" rx="1.5" transform="matrix(-1 0 0 1 2558 95)" fill="#1562AF" fill-opacity="0.14"/>
<rect width="64" height="3" rx="1.5" transform="matrix(-1 0 0 1 2558 106)" fill="#1562AF" fill-opacity="0.34"/>
<rect width="64" height="3" rx="1.5" transform="matrix(-1 0 0 1 2558 263)" fill="#1562AF" fill-opacity="0.34"/>
<rect width="86" height="3" rx="1.5" transform="matrix(-1 0 0 1 2488 106)" fill="#1562AF" fill-opacity="0.14"/>
<rect width="154" height="3" rx="1.5" transform="matrix(-1 0 0 1 2488 263)" fill="#1562AF" fill-opacity="0.14"/>
<g filter="url(#filter2_f_401_609)">
<rect x="832" y="235" width="891" height="52" fill="#14589C"/>
</g>
<g clip-path="url(#clip1_401_609)">
<path d="M1258.76 70.2377C1258.08 69.5541 1258.08 68.4462 1258.76 67.7625C1258.76 67.7625 1258.76 67.7624 1258.76 67.7623C1258.76 67.7623 1258.76 67.7623 1258.76 67.7623C1259.45 67.0794 1260.55 67.0795 1261.24 67.7626L1276.24 82.7646L1276.24 82.7647C1276.92 83.4483 1276.92 84.5516 1276.24 85.2353L1276.24 85.2353L1261.24 100.235C1260.55 100.919 1259.45 100.919 1258.76 100.235C1258.08 99.5516 1258.08 98.4483 1258.76 97.7646L1258.76 97.7646L1271.99 84.5302L1272.52 83.9999L1271.99 83.4697L1258.76 70.2377C1258.76 70.2377 1258.76 70.2377 1258.76 70.2377ZM1300 97.25C1300.97 97.25 1301.75 98.0314 1301.75 99C1301.75 99.9686 1300.97 100.75 1300 100.75H1277.5C1276.53 100.75 1275.75 99.9686 1275.75 99C1275.75 98.0314 1276.53 97.25 1277.5 97.25H1300Z" stroke="#3294F8" stroke-width="1.5"/>
</g>
<path d="M1220.48 142.27V149.758C1219.38 150.773 1217.13 151.281 1213.75 151.281C1213.08 151.281 1212.5 151.254 1211.99 151.199C1211.49 151.145 1211.03 151.074 1210.61 150.988C1210.19 150.902 1209.84 150.758 1209.54 150.555C1209.24 150.344 1208.98 150.133 1208.75 149.922C1208.53 149.711 1208.34 149.406 1208.2 149.008C1208.06 148.602 1207.95 148.211 1207.85 147.836C1207.77 147.461 1207.7 146.957 1207.65 146.324C1207.61 145.691 1207.59 145.086 1207.57 144.508C1207.55 143.93 1207.55 143.188 1207.55 142.281C1207.55 141.508 1207.55 140.848 1207.56 140.301C1207.57 139.754 1207.6 139.195 1207.64 138.625C1207.69 138.055 1207.75 137.582 1207.82 137.207C1207.89 136.824 1208 136.441 1208.12 136.059C1208.25 135.668 1208.41 135.355 1208.58 135.121C1208.75 134.879 1208.96 134.641 1209.22 134.406C1209.48 134.172 1209.77 133.992 1210.08 133.867C1210.4 133.742 1210.77 133.629 1211.19 133.527C1211.61 133.426 1212.07 133.359 1212.57 133.328C1213.07 133.289 1213.64 133.27 1214.27 133.27C1214.31 133.27 1214.37 133.27 1214.45 133.27C1215 133.27 1215.41 133.273 1215.69 133.281C1215.97 133.289 1216.35 133.32 1216.83 133.375C1217.31 133.422 1217.68 133.5 1217.94 133.609C1218.2 133.711 1218.5 133.867 1218.83 134.078C1219.17 134.281 1219.42 134.535 1219.58 134.84C1219.75 135.137 1219.89 135.516 1220.02 135.977C1220.14 136.438 1220.2 136.969 1220.2 137.57C1220.2 137.711 1220.2 137.906 1220.18 138.156L1218.08 138.555L1217.95 136.246C1217.94 135.746 1217.65 135.426 1217.1 135.285C1216.54 135.137 1215.49 135.062 1213.95 135.062C1212.89 135.062 1212.09 135.129 1211.55 135.262C1211.02 135.387 1210.64 135.582 1210.43 135.848C1210.22 136.113 1210.09 136.508 1210.04 137.031C1209.97 138.633 1209.94 140.273 1209.94 141.953C1209.94 143.641 1209.97 145.281 1210.04 146.875C1210.08 147.719 1210.15 148.266 1210.24 148.516C1210.39 148.898 1210.73 149.156 1211.26 149.289C1211.76 149.414 1212.63 149.477 1213.88 149.477C1216.55 149.477 1218.03 149.297 1218.32 148.938C1218.31 148.133 1218.3 146.5 1218.3 144.039H1215.35L1215.15 142.27H1220.48ZM1226.43 151H1224.05V133.539H1226.43V151ZM1239.89 135.344H1235.33V151H1232.95V135.344H1228.49V133.539H1239.89V135.344ZM1254.45 151H1252.07V142.984H1244.26V151H1241.88V133.539H1244.26V141.133H1252.07V133.539H1254.45V151ZM1271.36 133.539V144.473C1271.36 145.41 1271.31 146.215 1271.23 146.887C1271.15 147.559 1271 148.156 1270.79 148.68C1270.58 149.195 1270.32 149.617 1270 149.945C1269.68 150.266 1269.27 150.531 1268.75 150.742C1268.25 150.945 1267.68 151.086 1267.04 151.164C1266.41 151.242 1265.64 151.281 1264.75 151.281C1263.88 151.281 1263.14 151.246 1262.53 151.176C1261.92 151.105 1261.36 150.977 1260.84 150.789C1260.33 150.594 1259.91 150.34 1259.59 150.027C1259.28 149.707 1259.01 149.293 1258.78 148.785C1258.55 148.27 1258.39 147.664 1258.3 146.969C1258.21 146.273 1258.17 145.441 1258.17 144.473V133.539H1260.55V144.777C1260.55 145.426 1260.55 145.895 1260.55 146.184C1260.56 146.473 1260.58 146.828 1260.62 147.25C1260.66 147.664 1260.71 147.949 1260.77 148.105C1260.84 148.254 1260.94 148.441 1261.08 148.668C1261.23 148.895 1261.39 149.039 1261.57 149.102C1261.76 149.156 1262.01 149.227 1262.33 149.312C1262.65 149.398 1263 149.449 1263.36 149.465C1263.74 149.473 1264.2 149.477 1264.76 149.477C1265.41 149.477 1265.96 149.457 1266.4 149.418C1266.84 149.379 1267.23 149.301 1267.56 149.184C1267.89 149.066 1268.14 148.934 1268.31 148.785C1268.49 148.629 1268.63 148.402 1268.73 148.105C1268.84 147.809 1268.91 147.5 1268.94 147.18C1268.97 146.859 1268.99 146.434 1268.99 145.902L1268.98 133.539H1271.36ZM1287.4 145.973C1287.39 146.465 1287.37 146.898 1287.34 147.273C1287.32 147.641 1287.27 147.988 1287.21 148.316C1287.15 148.645 1287.08 148.922 1287.01 149.148C1286.94 149.375 1286.83 149.59 1286.67 149.793C1286.52 149.988 1286.38 150.148 1286.24 150.273C1286.1 150.391 1285.89 150.5 1285.63 150.602C1285.37 150.695 1285.12 150.766 1284.88 150.812C1284.64 150.859 1284.31 150.898 1283.91 150.93C1283.51 150.961 1283.12 150.98 1282.75 150.988C1282.38 150.996 1281.91 151 1281.35 151H1275.09V133.539H1281.73C1282.61 133.539 1283.34 133.586 1283.92 133.68C1284.5 133.766 1285.02 133.926 1285.46 134.16C1285.92 134.395 1286.25 134.727 1286.45 135.156C1286.65 135.586 1286.76 136.133 1286.77 136.797L1286.78 138.062C1286.78 138.594 1286.76 139.027 1286.72 139.363C1286.68 139.699 1286.61 140.004 1286.51 140.277C1286.41 140.551 1286.27 140.766 1286.07 140.922C1285.88 141.078 1285.64 141.211 1285.36 141.32C1285.09 141.422 1284.73 141.512 1284.29 141.59C1284.82 141.645 1285.28 141.762 1285.66 141.941C1286.05 142.121 1286.35 142.336 1286.57 142.586C1286.79 142.836 1286.97 143.152 1287.09 143.535C1287.22 143.918 1287.3 144.293 1287.34 144.66C1287.38 145.027 1287.4 145.465 1287.4 145.973ZM1284.46 137.559C1284.46 137.543 1284.46 137.52 1284.46 137.488C1284.46 137.16 1284.46 136.93 1284.46 136.797C1284.46 136.656 1284.43 136.488 1284.39 136.293C1284.35 136.09 1284.3 135.957 1284.26 135.895C1284.22 135.832 1284.12 135.75 1283.96 135.648C1283.82 135.539 1283.67 135.477 1283.52 135.461C1283.37 135.438 1283.14 135.41 1282.82 135.379C1282.5 135.34 1282.19 135.32 1281.88 135.32C1281.57 135.32 1281.14 135.32 1280.6 135.32H1277.45V140.922H1279.8C1280.83 140.922 1281.66 140.895 1282.29 140.84C1282.92 140.777 1283.39 140.676 1283.7 140.535C1284.01 140.387 1284.21 140.23 1284.3 140.066C1284.41 139.902 1284.46 139.684 1284.46 139.41V137.559ZM1285.08 145.41C1285.06 144.48 1285.03 143.895 1284.97 143.652C1284.86 143.223 1284.59 142.93 1284.16 142.773C1283.63 142.57 1282.45 142.465 1280.6 142.457C1280.48 142.457 1280.34 142.457 1280.19 142.457H1277.45V149.23H1281.93C1282.83 149.23 1283.52 149.156 1283.98 149.008C1284.44 148.852 1284.74 148.621 1284.89 148.316C1285.04 148.012 1285.11 147.562 1285.1 146.969L1285.08 145.41ZM1307.55 145.973C1307.55 146.465 1307.53 146.898 1307.5 147.273C1307.47 147.641 1307.43 147.988 1307.37 148.316C1307.3 148.645 1307.24 148.922 1307.17 149.148C1307.1 149.375 1306.98 149.59 1306.83 149.793C1306.68 149.988 1306.54 150.148 1306.39 150.273C1306.25 150.391 1306.05 150.5 1305.79 150.602C1305.53 150.695 1305.28 150.766 1305.04 150.812C1304.79 150.859 1304.47 150.898 1304.06 150.93C1303.66 150.961 1303.28 150.98 1302.9 150.988C1302.54 150.996 1302.07 151 1301.51 151H1295.25V133.539H1301.88C1302.77 133.539 1303.5 133.586 1304.07 133.68C1304.66 133.766 1305.18 133.926 1305.62 134.16C1306.07 134.395 1306.4 134.727 1306.61 135.156C1306.81 135.586 1306.91 136.133 1306.92 136.797L1306.93 138.062C1306.93 138.594 1306.91 139.027 1306.88 139.363C1306.84 139.699 1306.77 140.004 1306.66 140.277C1306.57 140.551 1306.43 140.766 1306.23 140.922C1306.04 141.078 1305.8 141.211 1305.52 141.32C1305.24 141.422 1304.89 141.512 1304.45 141.59C1304.98 141.645 1305.44 141.762 1305.82 141.941C1306.2 142.121 1306.5 142.336 1306.72 142.586C1306.95 142.836 1307.12 143.152 1307.25 143.535C1307.38 143.918 1307.46 144.293 1307.5 144.66C1307.54 145.027 1307.55 145.465 1307.55 145.973ZM1304.61 137.559C1304.61 137.543 1304.61 137.52 1304.61 137.488C1304.61 137.16 1304.61 136.93 1304.61 136.797C1304.61 136.656 1304.59 136.488 1304.54 136.293C1304.5 136.09 1304.46 135.957 1304.41 135.895C1304.38 135.832 1304.28 135.75 1304.12 135.648C1303.97 135.539 1303.82 135.477 1303.68 135.461C1303.53 135.438 1303.29 135.41 1302.97 135.379C1302.66 135.34 1302.35 135.32 1302.04 135.32C1301.72 135.32 1301.3 135.32 1300.76 135.32H1297.61V140.922H1299.96C1300.98 140.922 1301.81 140.895 1302.45 140.84C1303.08 140.777 1303.55 140.676 1303.85 140.535C1304.16 140.387 1304.37 140.23 1304.46 140.066C1304.56 139.902 1304.61 139.684 1304.61 139.41V137.559ZM1305.23 145.41C1305.22 144.48 1305.18 143.895 1305.13 143.652C1305.02 143.223 1304.75 142.93 1304.32 142.773C1303.79 142.57 1302.6 142.465 1300.76 142.457C1300.63 142.457 1300.5 142.457 1300.35 142.457H1297.61V149.23H1302.08C1302.99 149.23 1303.67 149.156 1304.13 149.008C1304.59 148.852 1304.9 148.621 1305.05 148.316C1305.2 148.012 1305.27 147.562 1305.26 146.969L1305.23 145.41ZM1319.59 151H1310.72V133.539H1313.1V149.207H1319.82L1319.59 151ZM1328.81 151.281C1328.13 151.281 1327.53 151.266 1327 151.234C1326.47 151.203 1325.99 151.125 1325.54 151C1325.1 150.883 1324.71 150.773 1324.39 150.672C1324.08 150.57 1323.8 150.379 1323.54 150.098C1323.29 149.809 1323.08 149.562 1322.92 149.359C1322.75 149.148 1322.61 148.805 1322.5 148.328C1322.38 147.844 1322.29 147.434 1322.24 147.098C1322.18 146.754 1322.14 146.227 1322.1 145.516C1322.07 144.805 1322.05 144.195 1322.04 143.688C1322.04 143.18 1322.04 142.445 1322.04 141.484C1322.04 140.328 1322.07 139.367 1322.13 138.602C1322.2 137.836 1322.32 137.125 1322.5 136.469C1322.68 135.812 1322.93 135.297 1323.22 134.922C1323.53 134.547 1323.94 134.227 1324.45 133.961C1324.98 133.688 1325.58 133.504 1326.27 133.41C1326.96 133.309 1327.81 133.258 1328.81 133.258C1329.76 133.258 1330.57 133.305 1331.24 133.398C1331.91 133.492 1332.5 133.66 1333.02 133.902C1333.54 134.137 1333.96 134.434 1334.27 134.793C1334.59 135.145 1334.86 135.609 1335.06 136.188C1335.26 136.766 1335.4 137.414 1335.47 138.133C1335.55 138.844 1335.59 139.711 1335.59 140.734C1335.59 143.625 1335.54 145.527 1335.46 146.441C1335.31 148.004 1334.95 149.121 1334.38 149.793C1333.78 150.512 1332.75 150.965 1331.31 151.152C1330.62 151.238 1329.79 151.281 1328.81 151.281ZM1330.49 135.109C1330.04 135.078 1329.48 135.062 1328.81 135.062C1328.14 135.062 1327.58 135.078 1327.14 135.109C1326.69 135.141 1326.3 135.207 1325.96 135.309C1325.64 135.41 1325.38 135.523 1325.2 135.648C1325.02 135.773 1324.88 135.969 1324.76 136.234C1324.65 136.492 1324.57 136.758 1324.54 137.031C1324.5 137.305 1324.48 137.676 1324.46 138.145C1324.44 139.59 1324.43 141.043 1324.43 142.504C1324.43 144.707 1324.49 146.215 1324.61 147.027C1324.79 148.246 1325.15 148.949 1325.67 149.137C1326.06 149.363 1327.11 149.477 1328.81 149.477C1330.52 149.477 1331.56 149.363 1331.95 149.137C1332.1 149.082 1332.23 148.992 1332.35 148.867C1332.48 148.742 1332.58 148.574 1332.66 148.363C1332.74 148.152 1332.82 147.941 1332.88 147.73C1332.94 147.512 1332.99 147.234 1333.03 146.898C1333.07 146.562 1333.1 146.262 1333.12 145.996C1333.15 145.723 1333.16 145.379 1333.17 144.965C1333.18 144.543 1333.18 144.195 1333.18 143.922C1333.19 143.648 1333.2 143.285 1333.2 142.832C1333.2 141.254 1333.18 139.691 1333.16 138.145C1333.14 137.676 1333.12 137.305 1333.08 137.031C1333.05 136.758 1332.97 136.492 1332.86 136.234C1332.75 135.969 1332.6 135.773 1332.42 135.648C1332.24 135.523 1331.98 135.41 1331.65 135.309C1331.32 135.207 1330.93 135.141 1330.49 135.109ZM1351.62 142.27V149.758C1350.51 150.773 1348.26 151.281 1344.88 151.281C1344.21 151.281 1343.63 151.254 1343.12 151.199C1342.62 151.145 1342.16 151.074 1341.74 150.988C1341.32 150.902 1340.97 150.758 1340.67 150.555C1340.38 150.344 1340.11 150.133 1339.89 149.922C1339.66 149.711 1339.48 149.406 1339.34 149.008C1339.2 148.602 1339.08 148.211 1338.98 147.836C1338.9 147.461 1338.83 146.957 1338.79 146.324C1338.75 145.691 1338.72 145.086 1338.7 144.508C1338.69 143.93 1338.68 143.188 1338.68 142.281C1338.68 141.508 1338.68 140.848 1338.69 140.301C1338.71 139.754 1338.73 139.195 1338.77 138.625C1338.82 138.055 1338.88 137.582 1338.95 137.207C1339.03 136.824 1339.13 136.441 1339.25 136.059C1339.39 135.668 1339.54 135.355 1339.71 135.121C1339.88 134.879 1340.1 134.641 1340.36 134.406C1340.61 134.172 1340.9 133.992 1341.21 133.867C1341.53 133.742 1341.9 133.629 1342.32 133.527C1342.75 133.426 1343.21 133.359 1343.71 133.328C1344.21 133.289 1344.77 133.27 1345.41 133.27C1345.45 133.27 1345.5 133.27 1345.58 133.27C1346.13 133.27 1346.54 133.273 1346.82 133.281C1347.11 133.289 1347.48 133.32 1347.96 133.375C1348.45 133.422 1348.82 133.5 1349.07 133.609C1349.33 133.711 1349.63 133.867 1349.96 134.078C1350.3 134.281 1350.55 134.535 1350.71 134.84C1350.88 135.137 1351.02 135.516 1351.15 135.977C1351.27 136.438 1351.34 136.969 1351.34 137.57C1351.34 137.711 1351.33 137.906 1351.31 138.156L1349.21 138.555L1349.09 136.246C1349.07 135.746 1348.79 135.426 1348.23 135.285C1347.68 135.137 1346.62 135.062 1345.08 135.062C1344.02 135.062 1343.23 135.129 1342.69 135.262C1342.15 135.387 1341.77 135.582 1341.56 135.848C1341.35 136.113 1341.22 136.508 1341.18 137.031C1341.11 138.633 1341.07 140.273 1341.07 141.953C1341.07 143.641 1341.11 145.281 1341.18 146.875C1341.21 147.719 1341.28 148.266 1341.38 148.516C1341.52 148.898 1341.86 149.156 1342.39 149.289C1342.89 149.414 1343.77 149.477 1345.01 149.477C1347.68 149.477 1349.16 149.297 1349.45 148.938C1349.44 148.133 1349.44 146.5 1349.44 144.039H1346.48L1346.29 142.27H1351.62Z" fill="#3294F8"/>
</g>
<defs>
<filter id="filter0_f_401_609" x="-530" y="-496" width="1036" height="1036" filterUnits="userSpaceOnUse" color-interpolation-filters="sRGB">
<feFlood flood-opacity="0" result="BackgroundImageFix"/>
<feBlend mode="normal" in="SourceGraphic" in2="BackgroundImageFix" result="shape"/>
<feGaussianBlur stdDeviation="200" result="effect1_foregroundBlur_401_609"/>
</filter>
<filter id="filter1_f_401_609" x="2029.43" y="-402.708" width="891.29" height="891.29" filterUnits="userSpaceOnUse" color-interpolation-filters="sRGB">
<feFlood flood-opacity="0" result="BackgroundImageFix"/>
<feBlend mode="normal" in="SourceGraphic" in2="BackgroundImageFix" result="shape"/>
<feGaussianBlur stdDeviation="184" result="effect1_foregroundBlur_401_609"/>
</filter>
<filter id="filter2_f_401_609" x="620" y="23" width="1315" height="476" filterUnits="userSpaceOnUse" color-interpolation-filters="sRGB">
<feFlood flood-opacity="0" result="BackgroundImageFix"/>
<feBlend mode="normal" in="SourceGraphic" in2="BackgroundImageFix" result="shape"/>
<feGaussianBlur stdDeviation="106" result="effect1_foregroundBlur_401_609"/>
</filter>
<clipPath id="clip0_401_609">
<rect width="2560" height="296" fill="white"/>
</clipPath>
<clipPath id="clip1_401_609">
<rect width="45" height="40" fill="white" transform="translate(1257.5 64)"/>
</clipPath>
</defs>
</svg>
